<svg xmlns="http://www.w3.org/2000/svg" fill="#fff" fill-rule="evenodd" stroke-linejoin="round" stroke-miterlimit="2" clip-rule="evenodd" viewBox="0 0 512 512"><path d="M256 0c141.29 0 256 114.71 256 256 0 141.29-114.71 256-256 256C114.71 512 0 397.29 0 256 0 114.71 114.71 0 256 0zm-45.1 392.16c113.3 0 175.23-93.87 175.23-175.23 0-2.68 0-5.36-.13-7.91 12.01-8.69 22.48-19.54 30.78-31.93a124.98 124.98 0 01-35.37 9.7 61.55 61.55 0 0027.07-34.1 124.73 124.73 0 01-39.08 14.95 61.29 61.29 0 00-44.95-19.41 61.6 61.6 0 00-61.56 61.55c0 4.86.51 9.58 1.66 14.05-51.21-2.55-96.55-27.07-126.95-64.37a61.77 61.77 0 00-8.3 30.91 61.3 61.3 0 0027.46 51.21 60.5 60.5 0 01-27.84-7.66v.77c0 29.88 21.2 54.66 49.42 60.4a61.42 61.42 0 01-16.22 2.18c-3.96 0-7.79-.39-11.62-1.15a61.49 61.49 0 0057.47 42.78 123.79 123.79 0 01-76.5 26.31c-4.98 0-9.83-.25-14.69-.9a171.58 171.58 0 0094.13 27.85z"/></svg>