<svg xmlns="http://www.w3.org/2000/svg" width="33" height="30"><path fill="rgba(58, 58, 58, 1)" d="M17.55.17c-6.53 0-12.2 4.2-14.08 10.42l1.3.4c.7-2.36 2-4.38 3.7-5.95 1.4 1 3 1.77 4.72 2.24a35.38 35.38 0 00-.62 4.96l1.35.08c.1-1.77.3-3.36.57-4.74a17.02 17.02 0 006.09 0c.35 1.84.6 4.06.63 6.6h-6.46v1.35h6.46a37.92 37.92 0 01-.64 6.6 15.54 15.54 0 00-5.49-.1l.2 1.33a15.63 15.63 0 015 .09c-.76 3.06-1.86 4.77-2.75 4.77-.64 0-1.68-1.02-2.52-3.9l-1.3.4c.4 1.38.9 2.48 1.44 3.3-.96-.2-1.9-.46-2.82-.85l-.52 1.25a14.72 14.72 0 0020.42-13.55c0-8.12-6.6-14.72-14.7-14.72zm7.98 4c-1.18.8-2.5 1.4-3.93 1.8-.43-1.73-1-3.2-1.7-4.24 2.08.37 4 1.22 5.63 2.44zM9.55 4.15a13.22 13.22 0 015.63-2.42 13.8 13.8 0 00-1.7 4.24 13.57 13.57 0 01-3.93-1.82zm8 2.38c-.94 0-1.86-.1-2.76-.26.74-3.02 1.82-4.75 2.75-4.75.9 0 2 1.7 2.75 4.76-.9.17-1.82.25-2.75.25zm4.34.77c1.7-.47 3.3-1.23 4.7-2.24 2.5 2.3 4.1 5.53 4.3 9.14h-8.32a38.76 38.76 0 00-.7-6.9zm-.3 16.47c1.42.4 2.75 1 3.93 1.8a13.28 13.28 0 01-5.63 2.45c.7-1.04 1.27-2.52 1.7-4.25zm5 .9c-1.4-1-3-1.75-4.7-2.22.4-2.13.64-4.52.68-6.9h8.3c-.18 3.6-1.8 6.83-4.28 9.13zM7.16 12.4a7 7 0 00-7 7c0 3.7 5.87 9.36 6.54 10l.46.44.46-.44c.67-.64 6.55-6.3 6.55-10a7 7 0 00-7-7zm0 15.56C5.23 26.04 1.5 21.83 1.5 19.4a5.67 5.67 0 0111.32.01c0 2.43-3.73 6.64-5.66 8.56zm0-11.46a3.27 3.27 0 100 6.54 3.27 3.27 0 000-6.54zm0 5.18a1.92 1.92 0 110-3.84 1.92 1.92 0 010 3.84z"/></svg>