<?xml version="1.0" encoding="UTF-8"?>
<svg width="512px" height="512px" viewBox="0 0 512 512" version="1.1" xmlns="http://www.w3.org/2000/svg" xmlns:xlink="http://www.w3.org/1999/xlink">
    <!-- Generator: Sketch 55.2 (78181) - https://sketchapp.com -->
    <title>Shape</title>
    <desc>Created with Sketch.</desc>
    <g id="Page-1" stroke="none" stroke-width="1" fill="none" fill-rule="evenodd">
        <path d="M256,0 C114.615104,0 0,114.615104 0,256 C0,397.384896 114.615104,512 256,512 C397.384896,512 512,397.384896 512,256 C512,188.104579 485.028649,122.989977 437.019336,74.980664 C389.010023,26.9713511 323.895421,0 256,0 Z M370.432,167.424 L256,262.7584 L141.568,167.424 L370.432,167.424 Z M384,333.568 C384.237754,336.572356 383.139974,339.528896 380.999089,341.65005 C378.858203,343.771203 375.891626,344.841562 372.8896,344.576 L139.1104,344.576 C136.224409,344.922721 133.331368,343.98788 131.193974,342.017931 C129.056579,340.047981 127.889348,337.240636 128,334.336 L128,184.0128 C128,183.5008 128,183.04 128,181.8624 L153.6,203.0592 L248.832,282.4192 C250.699262,284.401886 253.302053,285.525984 256.0256,285.525984 C258.749147,285.525984 261.351938,284.401886 263.2192,282.4192 L380.416,184.7296 L384,181.9648 C384,183.2448 384,184.064 384,184.9856 L384,333.4656 L384,333.568 Z" id="Shape" fill="#000000" fill-rule="nonzero"></path>
    </g>
</svg>