<svg xmlns="http://www.w3.org/2000/svg" width="66" height="64"><title>icon-readingtime</title><desc>Created with Sketch.</desc><path fill="#3A3A3A" d="M41.6 39.1c.66-.3 1.4.18 1.4.9v12c0 .4-.23.75-.6.9l-9 4c-.25.13-.55.13-.8 0l-9-4c-.37-.15-.6-.5-.6-.9V40c0-.72.74-1.2 1.4-.9l8.6 3.8 8.6-3.8zM25 51.34l8 3.56 8-3.55v-9.8l-7.6 3.36c-.25.14-.55.14-.8 0L25 41.56v9.8zM20 24c-4.97 0-9-4.03-9-9s4.03-9 9-9 9 4.03 9 9-4.03 9-9 9zm0-2c3.87 0 7-3.13 7-7s-3.13-7-7-7-7 3.13-7 7 3.13 7 7 7zm35 0c-6.08 0-11-4.92-11-11S48.92 0 55 0s11 4.92 11 11-4.92 11-11 11zm0-2c4.97 0 9-4.03 9-9s-4.03-9-9-9-9 4.03-9 9 4.03 9 9 9zM6 62V43c0-7.18 5.82-13 13-13h2c3.42 0 6.62 1.32 9.03 3.64.4.4.4 1.02.02 1.42-.38.4-1 .4-1.4.02C26.6 33.12 23.9 32 21 32h-2c-6.1 0-11 4.92-11 11v19h57c.55 0 1 .45 1 1s-.45 1-1 1H1c-.55 0-1-.45-1-1s.45-1 1-1h5zm50-51h2c.55 0 1 .45 1 1s-.45 1-1 1h-3c-.55 0-1-.45-1-1V8c0-.55.45-1 1-1s1 .45 1 1v3z"/></svg>