<svg xmlns="http://www.w3.org/2000/svg" width="70" height="76"><g fill="#3A3A3A"><path d="M52.9 62.2l-3.47-3.5-1.4 1.42 4.88 4.9 7.44-7.43-1.4-1.43zM17.4 34.82h-1.48a1.53 1.53 0 100 3.06 NaN NaNhNaNa1.53 1.53 0 100-3.06 NaN NaNzm0 12.86h-1.48a1.53 1.53 0 100 3.06 NaN NaNhNaNa1.53 1.53 0 100-3.06 NaN NaNzm0 12.87h-1.48a1.53 1.53 0 100 3.05 NaN NaNhNaNa1.53 1.53 0 100-3.05 NaN NaNzm18.17-25.73h-1.5a1.53 1.53 0 100 3.06 NaN NaNhNaNa1.53 1.53 0 100-3.06 NaN NaNzm0 12.86h-1.5a1.53 1.53 0 100 3.06 NaN NaNhNaNa1.53 1.53 0 100-3.06 NaN NaNzm0 12.87h-1.5a1.53 1.53 0 100 3.05 NaN NaNhNaNa1.53 1.53 0 100-3.05 NaN NaNzm16.67-22.67h1.5a1.53 1.53 0 100-3.06 NaN NaNhNaNa1.53 1.53 0 100 3.06 NaN NaNzm0 12.86h1.5a1.53 1.53 0 100-3.06 NaN NaNhNaNa1.53 1.53 0 100 3.06 NaN NaNzM62.96 6.06V3.2a2.64 2.64 0 60.33.56 NaN NaNhNaNa2.64 2.64 0 0-2.63 NaN NaNvNaNhNaNvNaNa2.64 2.64 0 35.9.56 NaN NaNhNaNa2.64 2.64 0 0-2.63 NaN NaNvNaNhNaNvNaNa2.64 2.64 0 11.5.56 NaN NaNhNaNa2.64 2.64 0 0-2.64 NaN NaNvNaNa7.62 7.62 0 0-6.4 NaN NaNvNaNa7.66 7.66 0 7.65 7.65 NaN NaNhNaNa7.66 7.66 0 7.66-7.65 NaN NaNvNaNa7.66 7.66 0 0-6.76 NaN NaNzM57.52 3.2c0-.36.28-.64.63-.64h2.18c.35 0 .63.28.63.63v7.6c0 .36-.28.65-.63.65h-2.18a.63.63 0 1-.63-.64 NaNvNaNzm-24.42 0c0-.36.28-.64.63-.64h2.18c.36 0 .65.28.65.63v7.6c0 .36-.3.65-.64.65h-2.16a.63.63 0 1-.64-.64 NaNvNaNzm-24.4 0c0-.36.27-.64.62-.64h2.18c.35 0 .63.28.63.63v7.6c0 .36-.28.65-.63.65H9.32a.63.63 0 1-.63-.64 NaNvNaNzm-2 4.95v2.66a2.64 2.64 0 2.63 2.64 NaN NaNhNaNa2.64 2.64 0 2.63-2.63 NaN NaNvNaNhNaNvNaNa2.64 2.64 0 2.64 2.64 NaN NaNhNaNa2.64 2.64 0 2.64-2.63 NaN NaNvNaNhNaNvNaNa2.64 2.64 0 2.63 2.64 NaN NaNhNaNa2.64 2.64 0 2.64-2.63 NaN NaNvNaNa5.66 5.66 0 14.75 5.58 NaN NaNvNaNhNaNvNaNcNaN NaN NaN NaN NaN NaNzm55.36 65.3H7.93a5.66 5.66 0 1-5.65-5.66 NaNvNaNh65.45vNaNa5.66 5.66 0 1-5.66 5.65 NaNz"/></g></svg>