<svg xmlns="http://www.w3.org/2000/svg" width="30" height="30"><title>time</title><desc>Created with Sketch.</desc><path fill="rgba(58, 58, 58, 1)" d="M14.66.34C22.76.34 29.32 6.9 29.32 15c0 8.1-6.57 14.66-14.66 14.66C6.56 29.66 0 23.1 0 15 0 6.9 6.57.34 14.66.34zm0 1.36C7.3 1.7 1.36 7.65 1.36 15c0 7.35 5.95 13.3 13.3 13.3 7.35 0 13.3-5.95 13.3-13.3 0-7.35-5.95-13.3-13.3-13.3zm0 2.73c.38 0 .68.3.68.68V15c-.03.26-.12.43-.3.56L8.64 22c-.28.25-.7.25-.97 0-.27-.28-.27-.7 0-.97l6.3-6.3V5.1c0-.36.3-.67.7-.67z"/></svg>