<svg xmlns="http://www.w3.org/2000/svg" width="329" height="101"><g fill="#fff"><path d="M132.4 92.6c4.77.05 8.36-2.46 8.4-6.24.05-3.47-2.67-5.24-6.22-6.1l-6.48-1.62c-8-2.24-12.74-6.28-12.64-13.84.1-7.87 7.18-13.9 16.74-13.8 6.2.1 12.16 2.4 14.84 7.96.4.72.5 1.54.48 2.15-.04 3.07-3 4.16-4.42 4.14-1.32-.02-2.33-.74-3.33-2.08-2.1-2.9-4.52-4.04-7.47-4.08-4.47-.05-7.45 2.57-7.5 6.14-.03 3.06 2.9 4.84 5.93 5.6l7 1.8c9.82 2.58 12.2 8.64 12.12 14.05-.1 8.9-8.7 14.2-18.57 14.07-7.32-.1-14.8-4.27-16.93-11.65-.1-.52-.2-1.03-.2-1.44.04-2.45 2.4-3.65 4.53-3.62 1.62.02 3.24.86 3.93 2.7 1.3 3.5 5.02 5.8 9.8 5.85M203.4 79.65l-34.97-.44c1.02 8 7.16 13.07 15.2 13.17 5.68.07 8.84-1.32 12.14-4.85 1.75-1.92 4.4-2.5 6.22-1.15 1.8 1.45 2.17 4.2.73 5.83-4.65 5.87-11.8 8.64-19.52 8.54-13.5-.16-24.16-10.2-23.97-25.32.18-15.12 11.08-24.58 24.6-24.42 13.5.17 23.45 9.9 23.26 25a3.67 3.67 0 01-3.7 3.65zm-5.4-7.32c-1.03-7.98-6.66-12.85-14.28-12.95-7.83-.1-14 4.63-15.2 12.58l29.47.37zM241.24 91.76c3.36.04 6.52-.94 9.08-2.75 2.25-1.4 4.8-1.46 6.5.5 1.7 1.96 1.46 5.23-.6 6.63-4.2 3-9.4 4.7-15.1 4.62-13.5-.17-24.97-10.23-24.78-25.34.28-14.9 12-24.56 25.4-24.4 5.7.08 10.75 1.98 15 5 2 1.45 2.16 4.72.4 6.64-1.53 1.6-4.38 1.88-6.5.33a15.39 15.39 0 00-9-2.98c-8.54-.1-16.14 6.23-16.26 15.83.1 9.4 7.43 15.82 15.86 15.93M292.3 91.76c3.36.04 6.52-.94 9.08-2.75 2.26-1.4 4.8-1.46 6.5.5 1.7 1.96 1.47 5.23-.6 6.63-4.2 3-9.4 4.7-15.1 4.62-13.5-.17-24.97-10.23-24.78-25.34.3-14.9 12-24.56 25.4-24.4 5.7.08 10.76 1.98 15 5 2 1.45 2.17 4.72.42 6.64-1.55 1.6-4.4 1.88-6.5.33a15.52 15.52 0 00-9.02-2.98c-8.54-.1-16.14 6.23-16.26 15.83.1 9.4 7.43 15.82 15.86 15.93M327.47 96.1a4.68 4.68 0 01-4.73 4.65 4.66 4.66 0 01-4.52-4.76l.8-65.27a4.67 4.67 0 014.64-4.64 4.67 4.67 0 014.62 4.74l-.8 65.27zM.5 44.24a37.4 37.4 0 01.55-14.52 39.91 39.91 0 012.3-6.9 38.74 38.74 0 018.5-11.99 37.66 37.66 0 0112.91-8.04 37.51 37.51 0 0121.63-1.31 37.89 37.89 0 0113.18 5.97c2.02 1.44 3.9 3.1 5.6 4.9a7.81 7.81 0 01-.3 11 7.74 7.74 0 01-10.97-.3 21.85 21.85 0 00-11.06-6.39 22.43 22.43 0 00-8.51-.33 21.83 21.83 0 00-8.27 3.1c-1.3.8-2.5 1.7-3.58 2.75a22.28 22.28 0 00-6.92 15.37 22 22 0 00.24 4.3 7.76 7.76 0 01-7.66 9 7.77 7.77 0 01-7.65-6.6zM35.85 100.83c-2 0-4-.15-5.95-.44a41.18 41.18 0 01-14.55-5.22A40.61 40.61 0 013.82 84.88a7.83 7.83 0 011.47-10.94 7.71 7.71 0 0110.85 1.48 25.24 25.24 0 003.26 3.52 25.64 25.64 0 008.16 4.84 24.08 24.08 0 009.49 1.42 24.5 24.5 0 0020.12-12.21 24.7 24.7 0 003.18-9c.24-1.6.32-3.25.24-4.87a7.8 7.8 0 017.36-8.17 7.77 7.77 0 018.13 7.4A40.59 40.59 0 0153.5 96.68a40.1 40.1 0 01-17.67 4.1"/></g></svg>