<svg xmlns="http://www.w3.org/2000/svg" viewBox="0 0 913.14 217.66"><defs><style>.cls-1{fill:#fff}</style></defs><title>Octopus Logo_White RGB</title><path d="M143.15 96.6c0 38.62-28.37 69.93-72.3 69.93-39.94 0-70.85-30.36-70.85-69 0-40.6 31.64-69 71.58-69s71.57 29.44 71.57 68.08zm-71.57 43.9c23.7 0 40.6-19.23 40.6-42.95S97.03 54.6 71.58 54.6c-25 0-40.6 19.24-40.6 42.96s16.72 42.9 40.6 42.9zm418.57-43.9c0 38.62-28.37 69.93-72.3 69.93-39.94 0-70.85-30.36-70.85-69 0-40.6 31.64-69 71.58-69s71.57 29.44 71.57 68.08zm-71.57 43.9c23.7 0 40.6-19.23 40.6-42.95s-15.15-42.94-40.6-42.94c-25 0-40.6 19.25-40.6 42.97s16.72 42.9 40.6 42.9zm229.46-30.17v-66.5c2.5-19.13 29.45-8.87 29.45-8.87v71.27c0 22.24 15.2 33.12 34 33.12s34-10.5 34-33.12c0 0 .06-48.7.06-62.36C748.06 24.75 775 35 775 35v45.86c3.84 56.5 57.88 60.72 57.88 60.72 53.8 7.45 49.06-14.64 49.06-14.64-1.4-11.12-9.68-13.64-24-15.47-8.9-1.14-16.6-1.92-16.6-1.92-57.67-3.65-52-41.7-52-41.7.73-32.17 35.16-37.07 35.16-37.07 30.42-5.42 51.9-.1 51.9-.1 47.35 9.85 24 32.3 20.12 33.56 0 0-12.6-11.55-42.1-13.2-36.33-2.33-35.7 14.82-35.7 14.82-1.17 12.5 14.85 14.8 14.85 14.8l38.93 5.45c46 6.4 40.4 39 40.4 39-3 40.8-51.66 41.1-51.66 41.1-66.5 3.88-91.54-30.65-91.54-30.65-9.32 18.54-27.93 30.94-58.85 30.94C674 166.5 648 145.8 648 108.73m-432.17-78c-53.2 3.8-65.32 53.24-64 67.6-.74 21.72 14.45 68.17 73.2 68.2a130.48 130.48 0 0 0 21.3-2v-26.4a142.2 142.2 0 0 1-20.63 1.84c-27.42.7-43-21.8-42.9-41.64 0-23 18.8-41.88 42.9-41.64h47.52l.12 65.05s-3.43 55.13 66.25 43.55v-26.25c-38.65 8.32-36.56-16-36.56-16V56.73h36.55v-26H303V0h-29.7v30.7zm312.5 175.3c-2.5 19.13-29.44 8.87-29.44 8.87V97.54c1.7-37.45 24.1-67.95 70.22-69 40.73-.9 70 29.4 70.23 68 .27 40.92-28.42 71.33-70.8 69.54-15.12-.84-29.9-6.8-40.1-19.9.02.06-.1 46.2-.1 59.87zm40.08-65.42c23.48 0 40.2-19.22 40.2-42.94s-15-42.95-40.2-42.95c-24.7 0-40.2 19.24-40.2 42.96s16.53 42.94 40.2 42.94z" class="cls-1"/></svg>