<svg xmlns="http://www.w3.org/2000/svg" width="60" height="15"><title>octopus-logo-white</title><desc>Created with Sketch.</desc><path fill="#fff" fill-rule="nonzero" d="M9.4 6.35c0 2.54-1.86 4.6-4.75 4.6-2.62 0-4.65-2-4.65-4.54 0-2.65 2.08-4.5 4.7-4.5 2.63 0 4.7 1.93 4.7 4.47zm-4.7 2.9c1.56 0 2.67-1.28 2.67-2.84 0-1.54-1-2.8-2.67-2.8-1.64 0-2.66 1.26-2.66 2.8 0 1.58 1.1 2.85 2.66 2.85zm27.5-2.9c0 2.54-1.86 4.6-4.74 4.6-2.63 0-4.66-2-4.66-4.54 0-2.65 2.08-4.5 4.7-4.5 2.63 0 4.7 1.92 4.7 4.46zm-4.7 2.9c1.56 0 2.67-1.28 2.67-2.84 0-1.54-1-2.8-2.67-2.8-1.64 0-2.66 1.26-2.66 2.8 0 1.58 1.1 2.85 2.66 2.85zm15.08-2V2.88c.17-1.26 1.94-.58 1.94-.58v4.68c0 1.47 1 2.18 2.23 2.18s2.23-.7 2.23-2.18c0 0 0-3.2 0-4.1.17-1.25 1.94-.58 1.94-.58v3.02c.26 3.7 3.8 4 3.8 4 3.54.48 3.23-.97 3.23-.97-.1-.74-.63-.9-1.58-1.02-.58-.08-1.1-.13-1.1-.13-3.78-.24-3.4-2.74-3.4-2.74.04-2.1 2.3-2.44 2.3-2.44 2-.35 3.42 0 3.42 0 3.1.64 1.55 2.12 1.3 2.2 0 0-.83-.76-2.77-.87-2.38-.15-2.34.98-2.34.98-.1.82.96.97.96.97l2.56.36C60.35 6.08 60 8.22 60 8.22c-.2 2.7-3.4 2.7-3.4 2.7-4.38.26-6.02-2-6.02-2-.62 1.2-1.84 2.03-3.87 2.03-2.4 0-4.1-1.36-4.1-3.8v.1zm-28.4-5.23c-3.5.25-4.3 3.5-4.2 4.45-.05 1.42.95 4.48 4.8 4.48.48 0 .95-.05 1.4-.13V9.08c-.44.08-.9.12-1.35.12-1.8.05-2.82-1.43-2.82-2.74 0-1.5 1.26-2.75 2.84-2.73h3.12V8s-.2 3.63 4.37 2.87V9.14c-2.54.55-2.4-1.05-2.4-1.05V3.7h2.4v-1.7h-2.4V0h-1.96v2.02H14.2zm20.54 11.53c-.17 1.25-1.94.58-1.94.58V6.4c.1-2.45 1.6-4.46 4.62-4.52C40.07 1.82 42 3.8 42 6.35c.03 2.7-1.86 4.7-4.64 4.57-1-.06-1.96-.45-2.63-1.3 0 0 0 3.03 0 3.93zm2.63-4.3C38.9 9.25 40 7.97 40 6.4s-1-2.8-2.66-2.8c-1.62 0-2.64 1.26-2.64 2.82 0 1.56 1.1 2.82 2.65 2.82z"/></svg>