<svg xmlns="http://www.w3.org/2000/svg" width="172" height="46"><title>p1 logo</title><desc>Created with Sketch.</desc><g fill="none"><path fill="#fff" d="M45 17.07V2h3.04v15.07H45zm17.55 0h-2.9V11.5c0-1.18-.05-1.94-.18-2.3-.12-.34-.32-.6-.6-.8-.28-.2-.6-.3-1-.3-.5 0-.95.15-1.35.43-.4.27-.67.63-.82 1.1-.14.44-.22 1.27-.22 2.5v4.94h-2.9V6.15h2.7v1.6c.95-1.23 2.15-1.84 3.6-1.84.63 0 1.22.13 1.74.36.53.23.93.52 1.2.88.27.35.46.76.57 1.2.1.46.14 1.1.14 1.95v6.8zm7.62 0l-4.4-10.92h3.04l2.07 5.57.6 1.86c.16-.47.25-.78.3-.93.1-.3.2-.62.3-.93l2.08-5.57h2.97L72.8 17.07h-2.6zM86.9 13.6l2.88.48c-.37 1.05-.96 1.85-1.76 2.4-.8.56-1.8.83-3 .83-1.9 0-3.3-.6-4.2-1.84-.73-1-1.1-2.24-1.1-3.76 0-1.82.48-3.23 1.43-4.26.95-1.02 2.14-1.53 3.6-1.53 1.6 0 2.9.55 3.83 1.6.94 1.1 1.4 2.74 1.35 4.95H82.7c0 .86.25 1.52.7 2 .44.48 1 .7 1.66.7.45 0 .83-.1 1.14-.36.3-.25.54-.65.7-1.2zm.16-2.93c-.02-.83-.24-1.47-.65-1.9-.4-.44-.9-.66-1.5-.66s-1.13.25-1.54.7c-.4.47-.6 1.1-.6 1.88h4.3zm5.9 3.28l2.9-.44c.12.58.37 1 .75 1.3.4.3.9.44 1.6.44.75 0 1.3-.14 1.7-.4.24-.2.37-.46.37-.8 0-.2-.07-.4-.2-.53-.15-.13-.47-.25-.97-.37-2.34-.5-3.82-.98-4.44-1.4-.87-.6-1.3-1.42-1.3-2.46 0-.95.37-1.74 1.12-2.4.75-.63 1.9-.95 3.48-.95 1.5 0 2.6.25 3.33.73.7.5 1.2 1.2 1.5 2.16l-2.75.5c-.1-.42-.33-.74-.66-.97C99.06 8.1 98.6 8 98 8c-.76 0-1.3.1-1.64.3-.22.16-.33.36-.33.6 0 .2.1.38.3.5.25.2 1.15.48 2.7.83 1.53.35 2.6.78 3.2 1.3.62.5.92 1.22.92 2.13 0 1-.42 1.86-1.26 2.58-.84.72-2.08 1.08-3.7 1.08-1.5 0-2.68-.3-3.55-.9-.87-.6-1.43-1.4-1.7-2.45zm19.43-7.8v2.3h-2v4.4c0 .9.02 1.4.06 1.56.04.17.12.3.26.38.13.1.3.15.5.15.25 0 .64-.1 1.15-.28l.24 2.24c-.66.3-1.42.42-2.27.42-.52 0-1-.07-1.4-.25-.42-.17-.73-.4-.93-.68-.18-.3-.32-.66-.4-1.13-.05-.34-.1-1.02-.1-2.04V8.46h-1.3v-2.3h1.3V3.98l2.9-1.68v3.85h2zm3.46 0h2.66v1.5c.96-1.17 2.1-1.74 3.4-1.74.7 0 1.3.16 1.83.45.5.28.93.72 1.26 1.3.5-.58 1-1.02 1.56-1.3.56-.3 1.15-.43 1.78-.43.8 0 1.48.17 2.04.5.54.32.96.8 1.23 1.43.2.46.3 1.22.3 2.26v6.98H129v-6.24c0-1.08-.1-1.78-.3-2.1-.25-.4-.66-.62-1.2-.62-.4 0-.8.14-1.14.38-.36.25-.62.6-.77 1.1-.17.47-.25 1.22-.25 2.24v5.25h-2.9v-6c0-1.06-.04-1.74-.14-2.05-.1-.3-.26-.54-.47-.7-.22-.14-.5-.22-.88-.22-.45 0-.85.13-1.2.37-.36.24-.62.6-.77 1.04-.16.46-.24 1.2-.24 2.26v5.3h-2.9V6.17zm26.95 7.44l2.9.47c-.38 1.05-.96 1.85-1.76 2.4-.8.56-1.8.83-3 .83-1.9 0-3.3-.6-4.2-1.85-.73-1-1.1-2.24-1.1-3.76 0-1.83.48-3.24 1.43-4.27.94-1.02 2.14-1.53 3.58-1.53 1.63 0 2.9.54 3.85 1.6.95 1.1 1.4 2.73 1.36 4.94h-7.24c.02.86.25 1.52.7 2 .44.48 1 .7 1.66.7.46 0 .84-.1 1.14-.36.3-.24.55-.64.7-1.2zm.18-2.94c-.03-.83-.25-1.47-.66-1.9-.4-.44-.9-.66-1.5-.66-.63 0-1.15.24-1.56.7-.4.46-.62 1.1-.6 1.87h4.3zm16.84 6.4h-2.9V11.5c0-1.18-.05-1.94-.18-2.3-.12-.34-.32-.6-.6-.8-.28-.2-.6-.3-1-.3-.5 0-.95.15-1.35.43-.4.27-.67.63-.8 1.1-.16.44-.24 1.27-.24 2.5v4.94h-2.9V6.15h2.7v1.6c.95-1.23 2.15-1.84 3.6-1.84.63 0 1.22.13 1.74.36.54.23.94.52 1.2.88.28.35.47.76.58 1.2.1.46.16 1.1.16 1.95v6.8zm9.63-10.92v2.3h-1.98v4.4c0 .9 0 1.4.05 1.56.04.16.12.28.26.37.14.1.3.15.5.15.26 0 .65-.1 1.16-.28l.24 2.24c-.67.3-1.43.43-2.28.43-.52 0-1-.06-1.4-.24-.43-.17-.73-.4-.93-.68-.2-.28-.34-.65-.4-1.12-.08-.34-.1-1.02-.1-2.04V8.46h-1.33v-2.3h1.32V3.98l2.9-1.68v3.85h1.97zM45.05 38.57V23.5h4.56l2.75 10.28 2.7-10.28h4.57v15.07H56.8V26.7l-3 11.87h-2.92l-3-11.87v11.87h-2.83zM64.77 31l-2.62-.5c.3-1.04.8-1.82 1.52-2.33.72-.5 1.8-.76 3.2-.76 1.3 0 2.26.17 2.9.48.62.3 1.06.7 1.32 1.16.23.47.36 1.33.36 2.58L71.44 35c0 .96.05 1.67.14 2.13.1.46.27.95.52 1.47h-2.86c-.07-.2-.17-.48-.28-.85-.04-.17-.08-.3-.1-.34-.5.5-1.02.85-1.58 1.1-.56.23-1.16.35-1.8.35-1.12 0-2-.3-2.66-.92-.65-.6-.97-1.38-.97-2.3 0-.63.15-1.18.44-1.66.3-.48.7-.85 1.22-1.1.53-.27 1.3-.5 2.3-.68 1.35-.27 2.28-.5 2.8-.7v-.3c0-.56-.13-.96-.4-1.2-.28-.23-.8-.35-1.56-.35-.5 0-.9.1-1.2.3-.3.2-.52.56-.7 1.07zm3.87 2.33c-.37.12-.96.27-1.76.44-.8.17-1.33.34-1.58.5-.37.27-.56.6-.56 1.02 0 .4.15.74.45 1.03.3.3.67.44 1.13.44.52 0 1.02-.17 1.5-.5.34-.27.57-.6.68-.97.1-.23.13-.7.13-1.4v-.57zm15.6 5.24h-2.88V33c0-1.18-.06-1.94-.18-2.3-.12-.33-.33-.6-.6-.8-.28-.18-.6-.28-1-.28-.5 0-.95.14-1.35.4-.4.28-.67.65-.82 1.1-.13.45-.2 1.3-.2 2.5v4.95h-2.9v-10.9H77v1.6c.95-1.24 2.15-1.86 3.6-1.86.63 0 1.2.13 1.74.36.53.23.93.53 1.2.88.27.36.46.76.56 1.22.1.45.15 1.1.15 1.94v6.77zm5.1-7.58l-2.62-.5c.3-1.05.8-1.83 1.52-2.34.72-.5 1.8-.76 3.2-.76 1.3 0 2.26.16 2.9.47.62.3 1.06.7 1.32 1.16.26.47.38 1.33.38 2.58L96 35c0 .96.06 1.67.15 2.13.1.46.27.95.52 1.47H93.8c-.06-.2-.15-.48-.26-.85-.05-.17-.1-.3-.1-.34-.5.5-1.03.85-1.6 1.1-.55.23-1.15.35-1.8.35-1.1 0-2-.3-2.65-.92-.66-.6-1-1.38-1-2.3 0-.63.16-1.18.45-1.66.3-.48.7-.85 1.24-1.1.52-.27 1.3-.5 2.3-.68 1.34-.27 2.3-.5 2.8-.7v-.3c0-.56-.14-.96-.4-1.2-.3-.23-.8-.35-1.57-.35-.5 0-.9.1-1.2.3-.3.2-.52.56-.7 1.07zm3.87 2.32c-.35.12-.94.27-1.74.44-.8.17-1.33.34-1.57.5-.4.27-.58.6-.58 1.02 0 .4.16.75.46 1.04.3.3.7.44 1.15.44.54 0 1.03-.17 1.5-.5.35-.27.58-.6.7-.97.07-.24.1-.7.1-1.4v-.58zm5.44 5.96l3.3.4c.05.37.18.64.38.78.28.2.7.3 1.3.3.76 0 1.32-.1 1.7-.33.25-.15.44-.4.57-.73.1-.24.13-.68.13-1.32v-1.6c-.86 1.18-1.95 1.77-3.26 1.77-1.47 0-2.63-.62-3.5-1.86-.66-.98-1-2.2-1-3.66 0-1.83.45-3.23 1.33-4.2.88-.96 1.97-1.44 3.28-1.44 1.35 0 2.46.6 3.34 1.8v-1.54h2.7v9.8c0 1.28-.1 2.24-.32 2.88-.22.64-.5 1.14-.9 1.5-.38.36-.9.65-1.53.85-.65.2-1.46.3-2.44.3-1.84 0-3.15-.33-3.92-.96-.77-.63-1.16-1.44-1.16-2.4 0-.1.02-.22.03-.36zm2.58-6.4c0 1.15.23 2 .68 2.53.45.55 1 .8 1.66.8.7 0 1.3-.26 1.8-.8.47-.55.72-1.37.72-2.45 0-1.13-.23-1.97-.7-2.52s-1.06-.82-1.77-.82c-.7 0-1.26.28-1.7.8-.46.55-.68 1.37-.68 2.48zm16.88 2.2l2.88.48c-.37 1.06-.96 1.86-1.76 2.4-.8.56-1.8.84-3 .84-1.9 0-3.3-.62-4.2-1.86-.73-1-1.1-2.25-1.1-3.76 0-1.8.48-3.23 1.43-4.25.95-1.03 2.14-1.54 3.6-1.54 1.6 0 2.9.54 3.83 1.6.94 1.08 1.4 2.7 1.35 4.94h-7.23c.02.85.26 1.52.7 2 .45.47 1 .7 1.67.7.45 0 .83-.1 1.14-.36.3-.26.55-.65.7-1.2zm.16-2.92c-.02-.84-.24-1.47-.65-1.9-.4-.44-.9-.66-1.5-.66-.63 0-1.15.23-1.56.7-.4.45-.6 1.07-.6 1.86h4.3zm5-4.52h2.67v1.5c.96-1.17 2.1-1.75 3.4-1.75.7 0 1.32.14 1.83.43.52.3.94.72 1.27 1.3.48-.58 1-1 1.55-1.3.56-.3 1.15-.43 1.78-.43.8 0 1.48.17 2.03.5.55.32.96.8 1.24 1.43.2.47.3 1.22.3 2.26v6.96h-2.88v-6.24c0-1.08-.1-1.78-.3-2.1-.27-.4-.68-.6-1.23-.6-.42 0-.8.1-1.16.36-.35.24-.6.6-.77 1.07-.15.48-.23 1.23-.23 2.26v5.25h-2.9V32.6c0-1.07-.04-1.76-.15-2.07-.1-.3-.27-.53-.48-.68-.22-.16-.5-.23-.88-.23-.45 0-.85.12-1.2.36-.36.24-.62.58-.77 1.04-.17.45-.24 1.2-.24 2.25v5.3h-2.9v-10.9zm25.27 7.44l2.9.48c-.38 1.06-.97 1.86-1.77 2.4-.8.56-1.8.84-3 .84-1.9 0-3.3-.62-4.2-1.86-.73-1-1.1-2.25-1.1-3.76 0-1.8.5-3.23 1.43-4.25.94-1.03 2.13-1.54 3.6-1.54 1.6 0 2.9.54 3.82 1.6.93 1.08 1.38 2.7 1.34 4.94h-7.24c.02.85.26 1.52.7 2 .45.47 1 .7 1.67.7.44 0 .82-.1 1.13-.36.32-.26.55-.65.7-1.2zm.17-2.92c-.02-.84-.23-1.47-.65-1.9-.4-.44-.9-.66-1.5-.66-.63 0-1.15.23-1.56.7-.4.45-.6 1.07-.6 1.86h4.3zm15.16 6.4h-2.9V33c0-1.18-.05-1.94-.18-2.3-.12-.33-.32-.6-.6-.8-.28-.18-.6-.28-1-.28-.5 0-.95.14-1.35.4-.4.28-.67.65-.82 1.1-.13.45-.2 1.3-.2 2.5v4.95h-2.9v-10.9h2.7v1.6c.94-1.24 2.14-1.86 3.6-1.86.62 0 1.2.13 1.73.36.53.23.93.53 1.2.88.27.36.46.76.57 1.22.1.45.16 1.1.16 1.94v6.77zm7.93-10.92v2.3h-1.98v4.4c0 .9 0 1.4.05 1.55.03.15.12.27.25.37.14.1.3.14.5.14.26 0 .65-.1 1.15-.26l.25 2.24c-.67.27-1.43.42-2.28.42-.52 0-1-.1-1.4-.26-.43-.18-.74-.4-.93-.68-.2-.28-.33-.66-.4-1.13-.07-.33-.1-1-.1-2.03v-4.76h-1.33v-2.3h1.33V25.5l2.9-1.7v3.86h1.96z"/><path fill="#FEFEFE" d="M3.66 42.25C1.96 40.2.38 38.32.18 38.05c-.36-.45-.3-.8 1.3-10C2.42 22.8 3.8 15 4.54 10.7c.73-4.28 1.44-8.25 1.55-8.84L6.3.8 9 .87l2.7.05 1.2 1.47c.65.8 1.2 1.45 1.25 1.45.04 0 .63-.38 1.3-.85 1.6-1.1 3.54-1.97 5.7-2.56 1.47-.4 2.22-.5 5.16-.47 3.17 0 3.57.05 5.1.57 3.27 1.1 5.66 3 6.85 5.4 1.08 2.22 1.04 3.6-.35 11.48-1.1 6-1.24 6.68-2 8.26-1.87 3.82-5.68 6.68-10.58 7.9-1.44.36-2.48.46-4.76.46-3.73.02-5.58-.46-8.15-2.06l-.8-.53-1.26 7.2-1.25 7.2-1.16.07-1.17.06-3.1-3.75zm18.58-16.38c.57-.25 1.54-.8 2.13-1.24 1.62-1.18 2.02-2.18 2.93-7 .9-4.83.92-6.2.04-7.3-1.37-1.72-3.16-2.2-8.07-2.12l-3.56.08-1.2 6.5c-.64 3.58-1.2 6.9-1.2 7.38-.03 1.73 1.26 3.2 3.43 3.94 1.45.5 4.07.4 5.52-.23zm13.1-1.3v-.96h-2.17V14.6l-.47.1c-.65.14-4.34.75-4.54.75-.1 0-.17.42-.17.94v.97l1.3-.15 1.27-.16v6.58l-1.23.06c-1.2.06-1.25.08-1.32.65-.15 1.2-.15 1.2 3.74 1.2h3.56v-.94z"/></g></svg>