<svg xmlns="http://www.w3.org/2000/svg" width="23" height="23"><title>noun_tick_1186115</title><desc>Created with Sketch.</desc><path fill="#4A8C88" d="M11.5 0C5.15 0 0 5.15 0 11.5S5.15 23 11.5 23 23 17.85 23 11.5 17.85 0 11.5 0zm7.1 8.12c-4.9 4.43-7.37 9.14-7.4 9.18 0 .03-.03.08-.04.1-.1.17-.23.28-.42.4-.2.12-.4.2-.64.2 0 0-.06 0-.08 0-.2 0-.4-.04-.57-.12 0 0 0 0-.02-.02-.04-.02-.1-.05-.15-.07-.14-.1-.18-.13-.27-.25 0-.02-.06-.1-.07-.12 0-.02-1.3-1.82-3.3-3.03-.62-.35-.8-1.1-.4-1.7.38-.56 1.2-.72 1.8-.36 1.17.7 2.1 1.52 2.8 2.23 1.2-1.88 3.47-5.08 6.95-8.22.52-.48 1.35-.46 1.86.03.5.48.5 1.26-.03 1.74z"/></svg>