<svg xmlns="http://www.w3.org/2000/svg" width="25" height="25"><g fill="none" fill-rule="evenodd"><path stroke="#2E8E89" d="M12.5 1a11.5 11.5 0 100 23 11.5 11.5 0 000-23z"/><path fill="#2E8E89" d="M19.6 9.12a36.73 36.73 0 00-7.44 9.28c-.1.17-.23.28-.42.4 0 0 0 0-.01 0-.2.12-.39.2-.63.2 0 0-.06 0-.08 0-.19 0-.39-.04-.57-.12 0 0-.01-.01-.02-.02-.04-.02-.11-.05-.15-.07a.75.75 0 01-.27-.23c-.02-.02-.08-.1-.1-.12 0-.02-1.29-1.82-3.3-3.03a1.18 1.18 0 01-.4-1.7c.39-.57 1.2-.73 1.82-.37 1.16.7 2.1 1.52 2.79 2.23a40.43 40.43 0 016.95-8.22 1.38 1.38 0 011.86.03c.5.48.5 1.26-.03 1.74z"/></g></svg>